grf
inDegrees=no
nColumns=19
nRows=85
DataType=double
version=3
OpenSimVersion=4.3-2021-08-27-4bc7ad9
endheader
time	ground_force_r_vx	ground_force_r_vy	ground_force_r_vz	ground_force_r_px	ground_force_r_py	ground_force_r_pz	ground_torque_r_x	ground_torque_r_y	ground_torque_r_z	ground_force_l_vx	ground_force_l_vy	ground_force_l_vz	ground_force_l_px	ground_force_l_py	ground_force_l_pz	ground_torque_l_x	ground_torque_l_y	ground_torque_l_z
0.648	0	0	0	0	0	0	0	0	0	85.38373036999999	2101.46593333	0	-0.09289857	0	0	-0.36359229	-8.106040549999999	0
0.649	0	0	0	0	0	0	0	0	0	107.6919216	2099.22134388	0	-0.09262890999999999	0	0	-0.43342528	-7.22950968	0
0.65	0	0	0	0	0	0	0	0	0	129.00961283	2095.70290969	0	-0.09234709000000001	0	0	-0.47426205	-6.40836247	0
0.651	0	0	0	0	0	0	0	0	0	149.59916277	2091.05864856	0	-0.09205998999999999	0	0	-0.49356948	-5.63023552	0
0.652	0	0	0	0	0	0	0	0	0	169.37796073	2084.88086962	0	-0.09177397	0	0	-0.48809823	-4.89684648	0
0.653	0	0	0	0	0	0	0	0	0	188.59396942	2077.35893755	0	-0.09149152000000001	0	0	-0.46412219	-4.18742653	0
0.654	0	0	0	0	0	0	0	0	0	207.23375979	2068.00717855	0	-0.09121074999999999	0	0	-0.41867359	-3.49194015	0
0.655	0	0	0	0	0	0	0	0	0	225.52947103	2057.06166135	0	-0.09092701	0	0	-0.35738503	-2.79732228	0
0.656	0	0	0	0	0	0	0	0	0	243.57276468	2043.98567467	0	-0.09063564	0	0	-0.27890387	-2.09921179	0
0.657	0	0	0	0	0	0	0	0	0	261.56426624	2029.08472291	0	-0.09033612000000001	0	0	-0.18939992	-1.402173	0
0.658	0	0	0	0	0	0	0	0	0	279.67458967	2011.78384837	0	-0.09002665	0	0	-0.08988943000000001	-0.71728518	0
0.659	0	0	0	0	0	0	0	0	0	298.01306847	1992.45191606	0	-0.08971131	0	0	0.0154886	-0.05048872	0
0.66	0	0	0	0	0	0	0	0	0	316.7643331	1970.48417204	0	-0.08939571	0	0	0.12795309	0.59067727	0
0.661	0	0	0	0	0	0	0	0	0	335.91512862	1946.3077539	0	-0.08908756	0	0	0.24811742	1.21525792	0
0.662	0	0	0	0	0	0	0	0	0	355.58374854	1919.29979392	0	-0.08879579	0	0	0.38334008	1.83342654	0
0.663	0	0	0	0	0	0	0	0	0	375.64872507	1889.94797067	0	-0.0885189	0	0	0.53619222	2.46013296	0
0.664	0	0	0	0	0	0	0	0	0	396.12382992	1857.65170139	0	-0.08825404000000001	0	0	0.71707428	3.11074767	0
0.665	0	0	0	0	0	0	0	0	0	416.83157157	1822.97360803	0	-0.08799316	0	0	0.92388503	3.78505219	0
0.666	0	0	0	0	0	0	0	0	0	437.65349253	1785.4078207	0	-0.08773575	0	0	1.16350097	4.48343701	0
0.667	0	0	0	0	0	0	0	0	0	458.39509422	1745.58173078	0	-0.08748346999999999	0	0	1.4280003	5.19058652	0
0.668	0	0	0	0	0	0	0	0	0	478.78533882	1703.09800827	0	-0.08724045	0	0	1.71893672	5.88980444	0
0.669	0	0	0	0	0	0	0	0	0	498.67005419	1658.59146187	0	-0.08700769999999999	0	0	2.02731259	6.56698649	0
0.67	0	0	0	0	0	0	0	0	0	517.64475536	1611.77750573	0	-0.08678772	0	0	2.35226808	7.19964101	0
0.671	0	0	0	0	0	0	0	0	0	535.64705527	1563.23619905	0	-0.08657281999999999	0	0	2.68739026	7.78533005	0
0.672	0	0	0	0	0	0	0	0	0	552.16120037	1512.73691193	0	-0.08635063	0	0	3.0306687	8.302422079999999	0
0.673	0	0	0	0	0	0	0	0	0	567.23301723	1460.77402941	0	-0.08611194	0	0	3.3773587	8.75781362	0
0.674	0	0	0	0	0	0	0	0	0	580.26775732	1407.17543822	0	-0.08585249	0	0	3.72620607	9.136390629999999	0
0.675	0	0	0	0	0	0	0	0	0	591.46599326	1352.3747787	0	-0.08558184000000001	0	0	4.07645512	9.45530445	0
0.676	0	0	0	0	0	0	0	0	0	600.25672567	1296.24726067	0	-0.08530137	0	0	4.42808769	9.706014229999999	0
0.677	0	0	0	0	0	0	0	0	0	607.01323837	1239.1565181	0	-0.08501069	0	0	4.77933739	9.903735340000001	0
0.678	0	0	0	0	0	0	0	0	0	611.240483	1181.03830464	0	-0.08469765999999999	0	0	5.12644997	10.03760901	0
0.679	0	0	0	0	0	0	0	0	0	613.38327007	1122.21590911	0	-0.08435218	0	0	5.46504384	10.11790738	0
0.68	0	0	0	0	0	0	0	0	0	612.93131709	1062.71491245	0	-0.08393920000000001	0	0	5.78300508	10.12705234	0
0.681	0	0	0	0	0	0	0	0	0	610.3232589	1002.82155375	0	-0.08344343	0	0	6.07396995	10.07184894	0
0.6820000000000001	0	0	0	0	0	0	0	0	0	605.07475469	942.67981625	0	-0.08281498	0	0	6.31864707	9.9301847	0
0.6830000000000001	0	0	0	0	0	0	0	0	0	597.68066122	882.55402013	0	-0.08206553	0	0	6.51406029	9.71175633	0
0.6840000000000001	0	0	0	0	0	0	0	0	0	587.65315433	822.76391461	0	-0.08116142	0	0	6.63584096	9.39509202	0
0.6850000000000001	0	0	0	0	0	0	0	0	0	575.41437575	763.54012181	0	-0.08012757	0	0	6.6889777	8.99879728	0
0.6860000000000001	0	0	0	0	0	0	0	0	0	560.35781714	705.42202745	0	-0.0789362	0	0	6.6519756	8.51289004	0
0.6870000000000001	0	0	0	0	0	0	0	0	0	542.87335563	648.5599214	0	-0.07761713000000001	0	0	6.53895407	7.96359775	0
0.6879999999999999	0	0	0	0	0	0	0	0	0	522.3908489299999	593.65059536	0	-0.0761474	0	0	6.33638912	7.35428059	0
0.6889999999999999	0	0	0	0	0	0	0	0	0	499.54967544	540.67192656	0	-0.074556	0	0	6.06658909	6.71149527	0
0.6899999999999999	0	0	0	0	0	0	0	0	0	474.19839749	490.40484609	0	-0.07282717	0	0	5.7243122	6.04590367	0
0.6909999999999999	0	0	0	0	0	0	0	0	0	447.15772376	442.60078782	0	-0.07100126	0	0	5.32963227	5.37323733	0
0.6919999999999999	0	0	0	0	0	0	0	0	0	418.44065176	397.94421159	0	-0.06907058000000001	0	0	4.87952207	4.70244374	0
0.6929999999999999	0	0	0	0	0	0	0	0	0	388.5751242	355.9187687	0	-0.06703244	0	0	4.39305868	4.04234738	0
0.694	0	0	0	0	0	0	0	0	0	357.60076503	317.0607477	0	-0.06482836	0	0	3.8787649	3.40953009	0
0.695	0	0	0	0	0	0	0	0	0	325.98949561	280.78667088	0	-0.06242868	0	0	3.357805	2.81227762	0
0.696	0	0	0	0	0	0	0	0	0	294.06006099	247.58736542	0	-0.05980813	0	0	2.85234028	2.2748763	0
0.697	0	0	0	0	0	0	0	0	0	262.29115086	216.8684107	0	-0.0571782	0	0	2.37918929	1.79991563	0
0.698	0	0	0	0	0	0	0	0	0	231.23773411	189.02547455	0	-0.0548844	0	0	1.96640467	1.41323385	0
0.699	0	0	0	0	0	0	0	0	0	201.16678959	163.429146	0	-0.05307471	0	0	1.61488522	1.10374649	0
0.7	0	0	0	0	0	0	0	0	0	172.70255241	140.35089279	0	-0.05181769	0	0	1.34172561	0.88274999	0
0.701	0	0	0	0	0	0	0	0	0	145.86194463	119.2058629	0	-0.05091671	0	0	1.13024791	0.72579978	0
0.702	0	0	0	0	0	0	0	0	0	121.25422228	100.21891395	0	-0.0507796	0	0	0.97996588	0.62886203	0
0.703	0	0	0	0	0	0	0	0	0	98.6572311	82.89536317	0	-0.05224265	0	0	0.86462764	0.56483373	0
0.704	0	0	0	0	0	0	0	0	0	78.59708390999999	67.44944895	0	-0.05766628	0	0	0.7706207	0.5199502499999999	0
0.705	0	0	0	0	0	0	0	0	0	60.68631769	53.48791053	0	-0.06833799	0	0	0.68184475	0.4785242	0
0.706	0	0	0	0	0	0	0	0	0	45.35719061	41.25601288	0	-0.08723195	0	0	0.5912649800000001	0.43258635	0
0.707	0	0	0	0	0	0	0	0	0	32.14724325	30.44402936	0	-0.11366336	0	0	0.49686381	0.3798276	0
0.708	0	0	0	0	0	0	0	0	0	13.29323918	13.03395751	0	-0.07485638	0	0	0.23428723	0.18484238	0
0.709	0	0	0	0	0	0	0	0	0	0	0	0	0	0	0	0	0	0
0.71	0	0	0	0	0	0	0	0	0	0	0	0	0	0	0	0	0	0
0.711	0	0	0	0	0	0	0	0	0	0	0	0	0	0	0	0	0	0
0.712	0	0	0	0	0	0	0	0	0	0	0	0	0	0	0	0	0	0
0.713	0	0	0	0	0	0	0	0	0	0	0	0	0	0	0	0	0	0
0.714	0	0	0	0	0	0	0	0	0	0	0	0	0	0	0	0	0	0
0.715	0	0	0	0	0	0	0	0	0	0	0	0	0	0	0	0	0	0
0.716	0	0	0	0	0	0	0	0	0	0	0	0	0	0	0	0	0	0
0.717	0	0	0	0	0	0	0	0	0	0	0	0	0	0	0	0	0	0
0.718	0	0	0	0	0	0	0	0	0	0	0	0	0	0	0	0	0	0
0.719	0	0	0	0	0	0	0	0	0	0	0	0	0	0	0	0	0	0
0.72	0	0	0	0	0	0	0	0	0	0	0	0	0	0	0	0	0	0
0.721	0	0	0	0	0	0	0	0	0	0	0	0	0	0	0	0	0	0
0.722	0	0	0	0	0	0	0	0	0	0	0	0	0	0	0	0	0	0
0.723	0	0	0	0	0	0	0	0	0	0	0	0	0	0	0	0	0	0
0.724	0	0	0	0	0	0	0	0	0	0	0	0	0	0	0	0	0	0
0.725	0	0	0	0	0	0	0	0	0	0	0	0	0	0	0	0	0	0
0.726	0	0	0	0	0	0	0	0	0	0	0	0	0	0	0	0	0	0
0.727	0	0	0	0	0	0	0	0	0	0	0	0	0	0	0	0	0	0
0.728	0	0	0	0	0	0	0	0	0	0	0	0	0	0	0	0	0	0
0.729	0	0	0	0	0	0	0	0	0	0	0	0	0	0	0	0	0	0
0.73	0	0	0	0	0	0	0	0	0	0	0	0	0	0	0	0	0	0
0.731	0	0	0	0	0	0	0	0	0	0	0	0	0	0	0	0	0	0
0.732	0	0	0	0	0	0	0	0	0	0	0	0	0	0	0	0	0	0
